<svg width="19" height="20" viewBox="0 0 19 20" fill="none" xmlns="http://www.w3.org/2000/svg">
<path d="M9.48901 0.977539C9.14844 0.977539 8.80811 0.995848 8.46948 1.03235C8.1591 1.06405 7.85253 1.11604 7.55008 1.17913C7.49155 1.19138 7.43298 1.2043 7.37445 1.21781C5.59245 1.62353 3.96529 2.53464 2.68809 3.84188C2.56932 3.96362 2.45305 4.08897 2.33935 4.21788C-1.11075 8.17872 -0.696703 14.1865 3.26417 17.6366C7.05619 20.9396 12.7641 20.7198 16.291 17.135C16.41 17.0133 16.5262 16.8879 16.6397 16.759C18.1623 15.0251 19.0013 12.796 19 10.4885C19 5.23567 14.7418 0.977499 9.48901 0.977539ZM3.11069 4.31743C3.16078 4.26544 3.21277 4.21566 3.26382 4.16526C3.32278 4.10724 3.38143 4.0489 3.44167 3.99279C3.49461 3.94333 3.54914 3.89578 3.60336 3.84759C3.66454 3.79338 3.72541 3.73916 3.78819 3.68685C3.84335 3.64025 3.9001 3.59555 3.95653 3.55053C4.01994 3.49981 4.08334 3.44908 4.14865 3.40026C4.20635 3.35682 4.265 3.31466 4.32397 3.27344C4.3896 3.22652 4.45554 3.17833 4.52243 3.13458C4.58235 3.094 4.6429 3.05469 4.70377 3.0157C4.77162 2.97226 4.83978 2.92946 4.90858 2.88888C4.97052 2.85191 5.03285 2.81553 5.09562 2.77983C5.16581 2.73988 5.23627 2.70088 5.30709 2.66284C5.37049 2.62904 5.4339 2.59595 5.4973 2.56361C5.56959 2.52715 5.6425 2.49196 5.71574 2.4574C5.77915 2.42729 5.84509 2.39717 5.9104 2.36864C5.9849 2.33693 6.06035 2.30523 6.13581 2.27353C6.20143 2.24658 6.26674 2.22026 6.333 2.1949C6.40972 2.16574 6.48739 2.13847 6.56507 2.11121C6.63133 2.08806 6.69759 2.06492 6.7648 2.04304C6.84374 2.01768 6.92331 1.99422 7.0032 1.97108C7.0701 1.95174 7.13636 1.93177 7.20357 1.91369C7.22925 1.90704 7.25493 1.90165 7.28061 1.89499C6.34219 2.80618 5.64579 3.93703 5.25446 5.18515C4.50198 4.98668 3.77352 4.70635 3.08216 4.34913C3.09262 4.33804 3.1015 4.32694 3.11069 4.31743ZM2.6548 4.82785C3.41635 5.24047 4.22391 5.56186 5.06075 5.78529C4.65051 7.21177 4.43517 8.6872 4.42066 10.1714H0.619454C0.688528 8.21419 1.40427 6.33506 2.6548 4.82785ZM2.6548 16.1491C1.40435 14.6418 0.688607 12.7627 0.619454 10.8055H4.42066C4.43517 12.2897 4.65047 13.7651 5.06075 15.1916C4.22395 15.4151 3.41639 15.7365 2.6548 16.1491ZM7.20167 19.0645C7.13763 19.0483 7.07137 19.0274 7.00542 19.0081C6.92521 18.9846 6.84469 18.9611 6.76543 18.9355C6.69854 18.9139 6.6326 18.8908 6.56665 18.8676C6.48866 18.8407 6.41067 18.8131 6.33363 18.7836C6.26769 18.7586 6.2027 18.7322 6.13739 18.7056C6.06162 18.6739 5.98585 18.6422 5.91071 18.6105C5.84604 18.582 5.78168 18.5526 5.71764 18.5224C5.64377 18.4875 5.57022 18.452 5.49572 18.4152C5.43231 18.3835 5.36891 18.3518 5.3055 18.3172C5.23385 18.2789 5.16284 18.2396 5.09182 18.199C5.02841 18.1638 4.96818 18.1277 4.90699 18.0909C4.83724 18.049 4.76877 18.0059 4.70029 17.9619C4.64005 17.9235 4.57981 17.8845 4.52053 17.8445C4.453 17.7989 4.38611 17.7513 4.31985 17.7038C4.26183 17.6623 4.20381 17.6207 4.14675 17.577C4.08112 17.5275 4.01677 17.4765 3.95273 17.4251C3.89661 17.3804 3.84081 17.336 3.78597 17.2901C3.72256 17.2374 3.66137 17.1826 3.59987 17.1281C3.54597 17.0802 3.49176 17.0329 3.43913 16.9841C3.37858 16.9277 3.31993 16.869 3.26096 16.811C3.20992 16.7606 3.15793 16.7108 3.10784 16.6592C3.09864 16.6493 3.08977 16.6392 3.08057 16.6297C3.7719 16.2723 4.50036 15.9919 5.25287 15.7934C5.64429 17.0414 6.34065 18.1722 7.27902 19.0835C7.25334 19.0769 7.22735 19.0715 7.20167 19.0645ZM9.17202 19.3403C7.81544 19.1476 6.62625 17.7317 5.87806 15.6409C6.95977 15.3986 8.06364 15.2687 9.17202 15.2531V19.3403ZM9.17202 14.6191C7.99623 14.6345 6.82539 14.7742 5.67896 15.0356C5.28089 13.6602 5.0709 12.2372 5.05473 10.8055H9.17202V14.6191ZM9.17202 10.1714H5.05473C5.07086 8.73967 5.28085 7.31667 5.67896 5.94127C6.82539 6.2027 7.99627 6.34235 9.17202 6.35785V10.1714ZM9.17202 5.72378C8.0636 5.70833 6.95977 5.57839 5.87806 5.33605C6.62625 3.24523 7.81544 1.82936 9.17202 1.63661V5.72378ZM16.3233 4.82785C17.5738 6.3351 18.2895 8.21423 18.3586 10.1714H14.5574C14.5429 8.6872 14.3276 7.21177 13.9174 5.78529C14.7542 5.56174 15.5617 5.24039 16.3233 4.82785ZM11.7739 1.91211C11.8405 1.9286 11.9067 1.94952 11.9727 1.96886C12.0529 1.99232 12.1334 2.01578 12.2127 2.04146C12.2796 2.06302 12.3455 2.08616 12.4114 2.1093C12.4894 2.13625 12.5674 2.16383 12.6445 2.19332C12.7104 2.21836 12.7754 2.24468 12.8407 2.27131C12.9165 2.30301 12.9923 2.33471 13.0674 2.36642C13.1321 2.39495 13.1964 2.42431 13.2605 2.45455C13.3343 2.48942 13.4079 2.52493 13.4824 2.56171C13.5458 2.59341 13.6092 2.62511 13.6726 2.65967C13.7443 2.69803 13.8153 2.73734 13.8863 2.77792C13.9497 2.81311 14.0099 2.84926 14.0711 2.88603C14.1409 2.92788 14.2093 2.971 14.2778 3.01506C14.3381 3.05342 14.3983 3.09242 14.4576 3.13237C14.5251 3.17802 14.5917 3.22526 14.6579 3.27281C14.7163 3.31434 14.7743 3.35619 14.8317 3.39962C14.897 3.44876 14.961 3.49981 15.0254 3.55116C15.0812 3.59555 15.1373 3.63993 15.1921 3.68622C15.2555 3.73885 15.3167 3.79369 15.3782 3.84822C15.4321 3.8961 15.4863 3.94333 15.539 3.99216C15.5995 4.04859 15.6582 4.10724 15.7171 4.16526C15.7682 4.21566 15.8202 4.26544 15.8703 4.31711C15.8795 4.32694 15.8883 4.33709 15.8975 4.3466C15.2062 4.70397 14.4777 4.98443 13.7252 5.18293C13.3331 3.93469 12.6358 2.80396 11.6965 1.89309C11.7222 1.89975 11.7482 1.90513 11.7739 1.91211ZM9.80608 1.63661C11.1627 1.82936 12.3518 3.24523 13.1 5.33605C12.0183 5.57827 10.9145 5.70821 9.80608 5.72378V1.63661ZM9.80608 6.35785C10.9819 6.34239 12.1527 6.20274 13.2991 5.94127C13.6972 7.31667 13.9072 8.73967 13.9234 10.1714H9.80608V6.35785ZM9.80608 10.8055H13.9234C13.9072 12.2372 13.6973 13.6602 13.2991 15.0356C12.1527 14.7742 10.9819 14.6346 9.80608 14.6191V10.8055ZM9.80608 19.3403V15.2531C10.9145 15.2686 12.0183 15.3985 13.1 15.6409C12.3518 17.7317 11.1627 19.1476 9.80608 19.3403ZM15.8674 16.6595C15.8173 16.7112 15.7656 16.7609 15.7146 16.8113C15.6556 16.8694 15.5967 16.928 15.5361 16.9844C15.4835 17.0336 15.4293 17.0795 15.3754 17.1287C15.3139 17.1832 15.2527 17.2377 15.1899 17.2904C15.1344 17.3367 15.078 17.3814 15.0216 17.4264C14.9582 17.4771 14.8948 17.5278 14.8295 17.5767C14.7718 17.6201 14.7131 17.6623 14.6541 17.7035C14.5885 17.7504 14.5226 17.7986 14.4557 17.8423C14.3958 17.8829 14.3352 17.9222 14.2743 17.9609C14.2065 18.0047 14.1381 18.0469 14.0692 18.0877C14.0058 18.1248 13.9452 18.1609 13.8828 18.1968C13.8126 18.2367 13.742 18.2757 13.671 18.3138C13.6076 18.3476 13.5442 18.3806 13.4808 18.413C13.4085 18.4494 13.3356 18.4846 13.2624 18.5192C13.199 18.5493 13.133 18.5794 13.0677 18.608C12.9932 18.6397 12.9177 18.6714 12.8423 18.7031C12.7767 18.7297 12.7114 18.7563 12.6454 18.7814C12.5681 18.8109 12.4904 18.8384 12.4124 18.8654C12.3465 18.8885 12.2805 18.9117 12.2136 18.9332C12.1344 18.9589 12.0551 18.9824 11.9743 19.0055C11.908 19.0252 11.8414 19.0448 11.7745 19.0629C11.7489 19.0696 11.7232 19.0749 11.6975 19.0816C12.6359 18.1704 13.3323 17.0396 13.7236 15.7915C14.4761 15.9899 15.2046 16.2702 15.8959 16.6275C15.8855 16.6389 15.8766 16.65 15.8674 16.6595ZM16.3233 16.1491C15.5618 15.7364 14.7542 15.4151 13.9174 15.1916C14.3276 13.7651 14.5429 12.2897 14.5574 10.8055H18.3586C18.2896 12.7627 17.5738 14.6419 16.3233 16.1491Z" fill="white"/>
</svg>
